<?xml version="1.0" standalone="no"?>
<!DOCTYPE svg PUBLIC "-//W3C//DTD SVG 1.1//EN" "http://www.w3.org/Graphics/SVG/1.1/DTD/svg11.dtd" >
<!--
2013-9-30: Created.
-->
<svg>
<metadata>
Created by iconfont
</metadata>
<defs>

<font id="iconfont" horiz-adv-x="1024" >
  <font-face
    font-family="iconfont"
    font-weight="500"
    font-stretch="normal"
    units-per-em="1024"
    ascent="896"
    descent="-128"
  />
    <missing-glyph />
    
    <glyph glyph-name="fangzi" unicode="&#59084;" d="M597.331316 709.979081l-426.66857-371.105511v-381.54214a91.771538 91.771538 0 0 1 85.33143-85.33143h682.662861a91.771538 91.771538 0 0 1 85.33143 85.33143V338.87357l-426.66857 371.105511z m128.002855-709.953389h-256.00571V213.33713999999998a85.342849 85.342849 0 0 0 85.331431 85.33143h85.33143a85.342849 85.342849 0 0 0 85.33143-85.33143v-213.311448zM1191.8766 370.708713a44.258614 44.258614 0 0 0-41.586654-29.368719h-64.081358L597.331316 766.524142 108.454044 341.33999400000005H44.372686a44.258614 44.258614 0 0 0-41.586654 29.368719 45.343384 45.343384 0 0 0 12.743192 49.830907L535.499429 873.082807a94.877406 94.877406 0 0 0 123.675193 0l151.490979-131.850933V810.66857a42.637169 42.637169 0 0 0 42.660006 42.671424h42.671424a42.637169 42.637169 0 0 0 42.660006-42.671424V629.831709l240.430696-209.292089a45.343384 45.343384 0 0 0 12.743193-49.830907z"  horiz-adv-x="1194" />

    
    <glyph glyph-name="shanchu" unicode="&#59085;" d="M327.416526 49.637429V547.647595a48.486536 48.486536 0 0 0 6.837227 20.511682 25.037734 25.037734 0 0 0 20.463533 6.837227c17.044919 0 37.508452-13.626305 37.508452-27.30076v-498.058315c0-13.626305-20.463533-27.30076-37.508452-27.300761a25.085884 25.085884 0 0 0-27.30076 27.300761z m146.663344 0V547.647595a48.486536 48.486536 0 0 0 6.885377 20.511682 25.037734 25.037734 0 0 0 20.463533 6.837227c17.044919 0 37.508452-13.626305 37.508452-27.30076v-498.058315c0-13.626305-20.463533-27.30076-37.508452-27.300761a26.915564 26.915564 0 0 0-27.300761 27.300761z m160.337799 0V547.647595a29.323039 29.323039 0 0 0 27.30076 27.30076c17.044919 0 37.508452-13.626305 37.508452-27.30076v-498.010166c0-13.626305-20.463533-27.30076-37.508452-27.300761a25.085884 25.085884 0 0 0-27.30076 27.300761z m146.663343-75.065054l47.764294 685.600576H197.846251l44.345679-668.507507c3.418614-20.463533 6.837227-57.779387 54.553371-57.779387h457.083101c17.044919 3.418614 24.074745 13.626305 27.30076 40.927066z m-27.30076-102.317664H279.700382a96.010081 96.010081 0 0 0-102.317664 85.272745L133.037038 660.2211H27.30076a48.486536 48.486536 0 0 0-20.463533 6.837228A48.486536 48.486536 0 0 0 0 687.521861c0 17.044919 13.626305 37.508452 27.30076 37.508452h259.23685V827.347977A70.7316 70.7316 0 0 0 364.973128 895.575803h296.745301a56.912696 56.912696 0 0 0 54.553371-27.30076 51.953299 51.953299 0 0 0 17.044919-47.764294v-95.480436h259.23685a34.378735 34.378735 0 0 0 30.719374-37.508452 48.486536 48.486536 0 0 0-6.837228-20.463533 25.085884 25.085884 0 0 0-20.463533-6.837228H893.654518l-47.764293-726.527641a92.061823 92.061823 0 0 0-92.109973-61.390599zM644.67351 830.766591H388.855274c-24.074745 0-34.089838-13.626305-34.089838-37.508452v-68.227826h317.208834V793.258139a35.197277 35.197277 0 0 1-27.30076 37.508452z m0 0"  horiz-adv-x="1024" />

    
    <glyph glyph-name="queren" unicode="&#59087;" d="M537.072893 10.243259999999964L97.781023 449.897403A57.239086 57.239086 0 0 1 16.849303 369.038138l474.142503-474.142504a72.454539 72.454539 0 0 1 5.216727-6.086181 58.470813 58.470813 0 0 1 81.946084 0c2.101182 2.101182 3.985 4.419727 5.868818 6.738272L1486.589627 798.258827A57.239086 57.239086 0 0 1 1405.657907 879.190547z m0 0"  horiz-adv-x="1503" />

    
    <glyph glyph-name="peizuguanli" unicode="&#59082;" d="M597.333333 725.333333L170.666667 347.392v-388.522667C170.666667-84.48 213.333333-128 256-128h682.666667c42.666667 0 85.333333 43.52 85.333333 86.869333V347.392L597.333333 725.333333z m85.333334-768H426.666667V201.130667C426.666667 254.976 464.896 298.666667 512 298.666667h85.333333c47.104 0 85.333333-43.690667 85.333334-97.536V-42.666667z m509.269333 453.802667A44.202667 44.202667 0 0 0 1150.293333 384h-64L597.333333 776.533333 108.373333 384H44.373333a44.202667 44.202667 0 0 0-41.557333 27.136 39.765333 39.765333 0 0 0 12.714667 45.994667L535.466667 874.837333C552.96 888.917333 575.146667 896 597.333333 896c22.186667 0 44.373333-7.082667 61.866667-21.162667L810.666667 753.152v64c0 21.845333 19.114667 39.424 42.666666 39.424h42.666667c23.552 0 42.666667-17.578667 42.666667-39.338667V650.24l240.469333-193.194667a39.765333 39.765333 0 0 0 12.8-46.08z"  horiz-adv-x="1194" />

    
    <glyph glyph-name="peizuguanli1" unicode="&#59088;" d="M597.333333 725.333333L170.666667 347.392v-388.522667C170.666667-84.48 213.333333-128 256-128h682.666667c42.666667 0 85.333333 43.52 85.333333 86.869333V347.392L597.333333 725.333333z m85.333334-768H426.666667V201.130667C426.666667 254.976 464.896 298.666667 512 298.666667h85.333333c47.104 0 85.333333-43.690667 85.333334-97.536V-42.666667z m509.269333 453.802667A44.202667 44.202667 0 0 0 1150.293333 384h-64L597.333333 776.533333 108.373333 384H44.373333a44.202667 44.202667 0 0 0-41.557333 27.136 39.765333 39.765333 0 0 0 12.714667 45.994667L535.466667 874.837333C552.96 888.917333 575.146667 896 597.333333 896c22.186667 0 44.373333-7.082667 61.866667-21.162667L810.666667 753.152v64c0 21.845333 19.114667 39.424 42.666666 39.424h42.666667c23.552 0 42.666667-17.578667 42.666667-39.338667V650.24l240.469333-193.194667a39.765333 39.765333 0 0 0 12.8-46.08z"  horiz-adv-x="1194" />

    
    <glyph glyph-name="fangyuanjihua" unicode="&#59089;" d="M694.477273 311.229712a216.86909 216.86909 0 0 0 155.470359-63.810824A218.550246 218.550246 0 0 0 913.758456 91.948529a216.86909 216.86909 0 0 0-63.810824-155.470359A218.550246 218.550246 0 0 0 694.477273-127.332654a216.86909 216.86909 0 0 0-155.470359 63.810824A218.550246 218.550246 0 0 0 475.19609 91.948529a216.86909 216.86909 0 0 0 63.810824 155.470359A218.550246 218.550246 0 0 0 694.477273 311.229712z m117.169246-252.100267a28.067991 28.067991 0 0 1 20.612431 8.478873 28.067991 28.067991 0 0 1 8.405779 20.612431 38.520395 38.520395 0 0 1-8.405779 23.389993 25.071149 25.071149 0 0 1-20.612431 11.256434h-86.250599v86.250598a26.679211 26.679211 0 0 1-9.355997 20.612432A31.284115 31.284115 0 0 1 694.477273 238.135984a34.792614 34.792614 0 0 1-22.512868-8.405778 25.728992 25.728992 0 0 1-10.233122-20.612432v-86.250598H577.234934a24.632586 24.632586 0 0 1-21.050994-11.256434 39.982269 39.982269 0 0 1-7.967216-23.389993c0-8.113404 2.631374-14.984214 7.967216-20.612431a27.629429 27.629429 0 0 1 21.050994-8.478873h84.350162v-84.350162c0-8.04031 3.435405-14.984214 10.306215-20.612431A34.792614 34.792614 0 0 1 694.477273-54.238927c8.113404 0 15.349683 2.777562 21.56265 8.405779a26.679211 26.679211 0 0 1 9.355997 20.612431v84.350162h86.250599zM457.653595 333.15783a315.326341 315.326341 0 0 1-66.003636-102.5505 314.449217 314.449217 0 0 1 0-232.438054c14.91112-37.789457 36.912332-71.631853 66.003636-101.454094 4.239436-4.385624 8.478872-8.551966 12.718309-12.499027 4.31253-4.020155 8.917435-7.821029 13.887808-11.475716H180.993836a67.977167 67.977167 0 0 0-50.507766 21.270275A71.412572 71.412572 0 0 0 109.727451-54.238927V687.66241c0 20.320056 6.943904 37.570176 20.758619 51.750359a67.977167 67.977167 0 0 0 50.507766 21.270275h62.860606V836.042677c0 16.738464 6.87081 30.918647 20.685525 42.54055A68.781198 68.781198 0 0 0 309.784984 895.979534c16.299901 0 30.699366-5.847498 43.1253-17.469401 12.35284-11.621903 18.565807-25.802086 18.565806-42.54055v-75.286539h205.393375V836.042677c0 16.738464 6.286061 30.918647 19.077463 42.54055A66.953855 66.953855 0 0 0 642.726914 895.979534c18.492713 0 33.769302-5.847498 45.756673-17.469401 12.060465-11.621903 18.127244-25.802086 18.127245-42.54055v-75.286539h62.787512a67.977167 67.977167 0 0 0 50.507766-21.197181c13.887808-14.253277 20.758619-31.503397 20.758619-51.896547v-318.542465a297.85694 297.85694 0 0 1-94.656378 44.221705 290.693755 290.693755 0 0 1-201.080845-17.469401c-31.941959-14.91112-61.033263-35.815927-87.273911-62.714418zM266.148029 591.178689a39.178238 39.178238 0 0 1-10.233122-25.217336c0-9.20981 3.435405-17.396307 10.233122-24.632586 6.87081-7.309373 15.276589-10.890965 25.144242-10.890966h294.71391c9.867653 0 18.273432 3.654686 25.071149 10.890966 6.87081 7.236279 10.306216 15.422777 10.306215 24.632586a39.178238 39.178238 0 0 1-10.233121 25.217336A31.57649 31.57649 0 0 1 585.933087 603.604623H291.292271a31.57649 31.57649 0 0 1-25.071149-12.35284zM292.461771 91.948529a35.084989 35.084989 0 0 1 25.948273 10.744778 34.207865 34.207865 0 0 1 10.598591 24.70568 37.277801 37.277801 0 0 1-10.598591 26.313742A34.207865 34.207865 0 0 1 292.461771 165.042257a34.207865 34.207865 0 0 1-25.948274-11.256434 37.277801 37.277801 0 0 1-10.59859-26.313742c0-9.355997 3.508499-17.542495 10.59859-24.778774A35.084989 35.084989 0 0 1 292.461771 91.948529z m72.216603 219.281183c10.964059 0 19.881494 3.654686 26.898492 11.110247a35.88902 35.88902 0 0 1 0 50.873234A35.450458 35.450458 0 0 1 364.678374 384.32344h-72.508978a34.134771 34.134771 0 0 1-25.728992-11.110247 35.88902 35.88902 0 0 1 0-50.873234 34.134771 34.134771 0 0 1 25.728992-11.110247h72.508978z"  horiz-adv-x="1024" />

    
    <glyph glyph-name="hetongchaxun" unicode="&#59090;" d="M109.826063 815.727662v-519.179737c0-21.427278-18.165214-40.16815-38.952871-40.16815S31.92032 275.120647 31.92032 296.547925V855.83185C31.92032 877.259127 50.085534 896 70.937154 896h433.662513c20.851619 0 39.016834-18.740873 39.016833-40.16815 0-21.363316-18.165214-40.104188-39.016833-40.104188H109.890025z m127.924046-127.924045v-519.179737c0-21.427278-18.165214-40.16815-38.952872-40.168151S159.844365 147.196602 159.844365 168.62388V727.907805C159.844365 749.335082 178.00958 768.075955 198.861199 768.075955h433.662513c20.851619 0 39.016834-18.740873 39.016833-40.16815 0-21.363316-18.165214-40.104188-39.016833-40.104188H237.814071z m599.004341-315.076923v179.093663H381.025039v-524.360661h117.306349c7.995253-41.575315 26.608201-75.283301 45.285112-90.890034H351.730433c-34.667416 0-63.962023 28.527062-63.962023 64.921453v573.739342A64.601643 64.601643 0 0 0 351.730433 640.15191h511.69618c34.667416 0 63.962023-28.527062 63.962023-64.921453v-210.30713c-21.299354 20.787657-63.962023 15.606734-90.634186 7.803367z m146.345107-482.657423l-9.786189-9.978075c-9.722227-9.978076-31.661201-9.978076-41.447391 0l-70.678035 64.793529c-26.864049-17.461632-56.094694-27.439708-87.819857-27.439708-92.617009 0-165.789562 77.266123-165.789562 169.49936C607.578523 181.544208 680.751077 256.379775 773.368085 256.379775c92.680971 0 165.853524-77.266123 165.853525-169.49936 0-34.859302-9.786189-64.729567-26.86405-92.105313l70.741997-64.857491c12.152784-7.483557 9.722227-27.375746 0-39.84834zM767.483579 192.417752c-53.024517 0-95.943034-41.831163-95.943034-95.943034 0-51.681314 42.918517-95.943034 95.943034-95.943034s95.943034 41.831163 95.943034 95.943034-42.918517 95.943034-95.943034 95.943034zM454.069669 448.265842h51.169618c20.467847 0 38.377214-14.903151 38.377213-31.981011s-17.909366-31.981011-38.377213-31.981011h-51.169618c-20.467847 0-38.377214 14.903151-38.377214 31.981011s17.909366 31.981011 38.377214 31.981011z m0-127.924045h51.169618c20.467847 0 38.377214-14.903151 38.377213-31.981011s-17.909366-31.981011-38.377213-31.981011h-51.169618c-20.467847 0-38.377214 14.903151-38.377214 31.981011s17.909366 31.981011 38.377214 31.981011z m191.886067 127.924045h51.169619c20.467847 0 38.377214-14.903151 38.377213-31.981011s-17.909366-31.981011-38.377213-31.981011h-51.169619c-20.467847 0-38.377214 14.903151-38.377213 31.981011s17.909366 31.981011 38.377213 31.981011z"  horiz-adv-x="1024" />

    
    <glyph glyph-name="chanyepeitaozhufang" unicode="&#59091;" d="M1012.394667 396.9024L546.133333 785.885867 79.872 396.9024a31.675733 31.675733 0 0 0-39.185067 0L8.192 424.072533a20.48 20.48 0 0 0 0 32.631467L526.5408 889.2416a31.675733 31.675733 0 0 0 39.185067 0l518.417066-432.5376a20.48 20.48 0 0 0 0-32.631467l-32.5632-27.170133a31.675733 31.675733 0 0 0-39.185066 0z m-859.9552-15.837867l391.3728 325.2224 396.014933-325.2224v-446.2592H152.439467V381.064533zM983.04 750.523733v-145.408l-102.877867 85.1968V750.592h-13.312a28.535467 28.535467 0 1 0 0 56.9344h133.3248a28.535467 28.535467 0 1 0 0-56.9344H983.04z m-223.709867-485.376a10.6496 10.6496 0 0 1-2.730666 6.9632 9.0112 9.0112 0 0 1-6.144 3.6864l-53.930667 8.260267a185.9584 185.9584 0 0 1-12.151467 28.8768c3.4816 4.9152 8.874667 11.810133 15.906134 20.753067a630.101333 630.101333 0 0 1 15.018666 19.592533 10.922667 10.922667 0 0 1 2.389334 6.690133 9.557333 9.557333 0 0 1-2.048 6.5536c-7.168 9.898667-23.3472 26.624-48.7424 50.039467a11.264 11.264 0 0 1-7.441067 3.003733 9.693867 9.693867 0 0 1-7.031467-2.730666l-41.915733-31.5392a187.1872 187.1872 0 0 1-26.624 10.8544l-8.192 54.203733a8.874667 8.874667 0 0 1-3.413333 6.280533 11.127467 11.127467 0 0 1-7.236267 2.4576h-65.536c-5.666133 0-9.147733-2.730667-10.513067-8.260266a487.0144 487.0144 0 0 1-8.6016-54.749867 166.161067 166.161067 0 0 1-26.8288-11.195733l-40.7552 31.5392a12.424533 12.424533 0 0 1-7.714133 3.003733c-4.3008 0-13.585067-7.031467-27.8528-21.0944-14.336-14.062933-23.893333-24.576-29.013333-31.675733a11.537067 11.537067 0 0 1-2.730667-6.7584c0-2.321067 1.024-4.642133 3.003733-7.031467 13.243733-15.9744 23.7568-29.4912 31.607467-40.686933a144.452267 144.452267 0 0 1-11.4688-27.101867l-54.8864-8.192a9.147733 9.147733 0 0 1-5.5296-3.8912 11.127467 11.127467 0 0 1-2.389333-6.7584v-65.604267c0-2.525867 0.8192-4.9152 2.389333-6.9632a8.874667 8.874667 0 0 1 6.144-3.6864l53.998933-7.918933c2.798933-9.557333 6.826667-19.319467 12.151467-29.149867-3.4816-4.9152-8.874667-11.810133-15.906133-20.753066a630.101333 630.101333 0 0 1-15.018667-19.524267 11.127467 11.127467 0 0 1-2.389333-6.826667c0-2.4576 0.682667-4.7104 2.048-6.690133 7.714133-10.581333 23.893333-27.101867 48.7424-49.493333a10.786133 10.786133 0 0 1 14.813866-0.477867l41.642667 31.5392c8.055467-4.096 16.930133-7.714133 26.555733-10.8544l8.328534-54.272c0.136533-2.525867 1.365333-4.642133 3.413333-6.280533 2.048-1.6384 4.369067-2.525867 7.168-2.525867h65.536c5.7344 0 9.284267 2.730667 10.581333 8.260267 2.594133 9.762133 5.461333 28.0576 8.6016 54.749866 9.216 2.935467 18.158933 6.690133 26.8288 11.195734l40.7552-31.812267c2.8672-1.911467 5.3248-2.730667 7.714134-2.730667 4.3008 0 13.5168 7.099733 27.716266 20.957867 14.1312 13.994667 23.893333 24.576 29.149867 31.880533a9.284267 9.284267 0 0 1 2.730667 6.7584 11.400533 11.400533 0 0 1-3.003734 7.3728 756.394667 756.394667 0 0 0-31.607466 40.686934c3.8912 7.304533 7.7824 16.247467 11.537066 26.8288l54.613334 8.192a9.216 9.216 0 0 1 5.870933 3.8912 10.922667 10.922667 0 0 1 2.389333 6.7584v65.399466z m-173.2608-85.538133a73.5232 73.5232 0 0 0-53.384533-22.1184c-20.8896 0-38.7072 7.304533-53.4528 22.1184a72.840533 72.840533 0 0 0-22.186667 53.316267c0 20.821333 7.509333 38.638933 22.186667 53.316266a73.045333 73.045333 0 0 0 53.4528 22.1184c20.821333 0 38.7072-7.3728 53.384533-22.050133 14.7456-14.7456 22.186667-32.494933 22.186667-53.316267 0-20.821333-7.441067-38.638933-22.186667-53.384533z"  horiz-adv-x="1092" />

    
    <glyph glyph-name="qishiyedanweiziyouzhufang" unicode="&#59092;" d="M0-128h512V896H0v-1024zM292.571429 822.857143h146.285714v-146.285714H292.571429V822.857143z m0-219.428572h146.285714v-146.285714H292.571429V603.428571z m0-219.428571h146.285714v-146.285714H292.571429V384zM73.142857 822.857143h146.285714v-146.285714H73.142857V822.857143z m0-219.428572h146.285714v-146.285714H73.142857V603.428571z m0-219.428571h146.285714v-146.285714H73.142857V384z m512-512h146.285714v219.428571h219.428572v-219.428571h73.142857V310.857143H585.142857v-438.857143z m0 585.142857h438.857143v-73.142857H585.142857V457.142857z"  horiz-adv-x="1024" />

    
    <glyph glyph-name="picichaxun" unicode="&#59093;" d="M800.832-94.464c3.2 0 6.336 0 9.472 6.4-9.408-6.4-17.28-6.4-26.752-6.4h17.28z m-45.568 315.2a42.112 42.112 0 1 1 0-84.224 42.112 42.112 0 1 1 0 84.224zM783.552 339.2a190.72 190.72 0 0 1-191.744-190.272c0-104.512 84.864-188.736 191.744-188.736 105.344 0 191.808 84.224 191.808 190.272 0 104.512-86.464 188.736-191.808 188.736z m92.8-300.992c-6.336 0-11.008 3.072-15.744 6.208l-62.912 60.8a79.488 79.488 0 0 0-42.432-12.48 84.224 84.224 0 1 0 0 168.448c47.168 0 84.928-37.44 84.928-84.224 0-15.552-4.736-29.632-12.608-42.112l62.912-60.8a23.68 23.68 0 0 0 6.272-15.616c0-10.88-9.472-20.224-20.48-20.224zM205.056 722.88c23.552 0 50.304 26.496 50.304 49.92V846.08c0 23.424-15.744 49.92-50.304 49.92-28.288 0-50.304-26.496-50.304-49.92v-73.28c1.536-23.424 28.288-49.92 50.304-49.92z m223.168 0c40.96 0 50.304 26.496 50.304 49.92V846.08c0 23.424-14.08 49.92-50.304 49.92-34.56 0-50.24-26.496-50.24-49.92v-73.28c1.536-23.424 18.816-49.92 50.24-49.92z m223.232 0c33.024 0 50.304 26.496 50.304 49.92V846.08c0 23.424-17.28 49.92-50.304 49.92-28.288 0-50.304-26.496-50.304-49.92v-73.28c1.6-23.424 28.288-49.92 50.304-49.92z m149.376-815.808c3.136 0 6.272 0 9.408 6.4-9.408-6.4-17.28-6.4-26.752-6.4h17.28z m-257.856 241.92c0 131.008 108.48 238.592 240.512 238.592 23.616 0 47.168-3.136 69.184-9.344l-1.6 369.6c0 23.424-26.688 49.92-50.24 49.92h-50.304v-49.92c0-46.784-51.904-73.28-99.072-73.28S552.512 702.592 552.512 747.84v49.92h-25.152v-49.92c0-46.784-51.84-73.28-99.072-73.28-75.392 0-99.008 51.456-99.008 98.24v24.96H304.192v-24.96A99.84 99.84 0 0 0 201.984 674.56c-47.168 0-97.472 34.304-97.472 98.24v24.96H82.496c-23.552 0-50.304-26.496-50.304-49.92v-781.312c0-23.424 26.752-56.192 50.304-56.192H783.552c-133.568 1.6-240.512 107.648-240.512 238.656zM181.504 526.4s517.184-1.6 518.784 0c23.552 1.536 51.84-14.08 51.84-49.92 0-32.768-26.688-49.92-50.304-49.92h-520.32c-23.552 0-50.304 12.48-50.304 49.92 0 32.768 26.752 49.92 50.304 49.92z m223.232-491.264H181.504c-18.816 0-50.304 10.88-50.304 49.92 0 29.632 29.888 51.456 50.304 51.456l223.232-3.136c18.88 0 50.304-10.88 50.304-49.92-1.6-29.632-31.424-48.32-50.304-48.32z m48.704 196.48H181.504c-23.552 0-50.304 15.616-50.304 49.92 0 37.44 26.752 49.92 50.304 49.92h273.536c23.552 0 50.304-18.752 50.304-49.92-1.6-24.96-28.288-49.92-51.84-49.92z"  horiz-adv-x="1024" />

    
    <glyph glyph-name="peishouguanli" unicode="&#59094;" d="M433.635153-123.173292c1.682035 15.942763 2.779014 29.984095 4.607313 43.7329 3.217805 23.987276 7.093798 47.828288 10.530999 71.742433 1.682035 11.993638 2.779014 24.13354 4.168521 36.054046l7.240062 55.43401c1.462639 10.677263 2.779014 21.50079 3.949124 32.324317 1.608903 16.089027 2.779014 32.178053 4.534181 48.340212 0.877583 8.629569 2.63275 17.186006 3.510333 25.742443 1.755167 17.771061-5.411764 33.713824-10.092208 50.241643-1.462639 5.850555-3.802861 11.70111-4.53418 17.697929-0.219396 1.828298 3.437201 6.069951 5.338631 6.069951 33.93322 0.438792 67.86644 0.292528 101.726528 0.292528 4.89984 0 6.655007-1.170111 4.89984-6.728139-3.875993-11.70111-6.80127-23.402221-10.019075-35.176463-1.316375-4.753576-2.925278-9.43402-3.656597-14.260728-2.705882-16.381554-0.36566-32.616845 2.925277-48.925267 2.486486-11.481715 3.217805-23.329089 4.387917-35.103331 1.462639-17.039742 2.340222-34.152616 4.387916-51.192358 3.144673-24.864859 7.093798-49.729719 10.457867-74.594579 1.608903-10.969791 2.925278-22.085846 4.022257-33.2019 1.608903-16.820346 2.852146-33.640692 4.387916-50.241643 1.023847-10.238472 2.340222-20.476943 3.949125-30.56915 0.292528-1.974562 2.852146-3.510333 5.996819-7.093798 4.753576 18.429249 8.483305 34.372012 12.871221 50.16851 4.387916 16.089027 9.360888 32.178053 13.895069 48.26708 3.144673 11.189187 5.777423 22.597769 8.775833 33.860088 3.364069 12.286166 6.947534 24.4992 10.238471 36.785366 2.99841 11.189187 5.631159 22.597769 8.775833 33.786956 3.144673 12.06677 6.655007 24.060408 10.019076 36.127178 2.925278 11.116055 5.850555 22.451505 8.922096 33.640692 3.364069 12.578694 7.020666 25.084255 10.457868 37.809213 2.925278 11.554846 5.558027 23.255957 8.629569 34.737671 3.217805 12.06677 6.947534 23.987276 10.238471 35.834651 2.99841 10.969791 5.631159 22.012714 8.629569 32.982505 1.243243 5.046104 1.389507 11.70111 4.607312 14.480124 3.802861 3.290937 11.408583 5.338632 15.869631 3.80286 20.476943-7.459458 40.368831-16.527818 60.626378-24.499199 20.842603-8.337041 42.050865-16.015895 62.9666-24.13354 16.674082-6.435611 33.348164-12.944353 49.875983-19.672492 21.354526-8.629569 41.685206-18.86804 60.33385-32.616845 16.820346-12.43243 29.984095-27.790137 37.516685-46.950705 3.364069-8.483305 3.217805-18.282985 4.241652-27.643874 1.608903-16.96661 2.559618-34.152616 4.241653-51.192357 2.193958-20.111283 4.753576-40.149435 7.093798-60.187587l0.219396-2.779013c1.462639-20.330679 2.925278-40.515095 4.53418-60.69951 1.023847-14.041332 2.193958-28.009533 4.022257-41.83147 2.925278-22.378374-20.915735-45.707462-44.391087-45.488066-128.931609 1.170111-257.790087 0.877583-386.867961 0.877583-181.00155 0-362.149365-0.146264-543.297179-0.585055-16.089027 0-29.984095 3.510333-38.906192 16.527818-10.823527 15.796499-12.213034 33.93322-7.898249 52.289337 0.438792 1.828298 1.462639 3.656597 1.462638 5.338632 1.535771 19.96502 2.63275 39.930039 4.534181 59.821926 1.755167 16.96661 4.53418 33.860088 6.655006 50.753566l0.36566 2.779014c1.462639 19.891888 1.170111 40.222567 4.826708 59.675663 3.583465 19.014304 0.511924 39.125588 13.310013 56.823517a171.128739 171.128739 0 0 0 45.63433 43.074712c27.058818 17.478534 57.774232 27.058818 87.758328 38.540532 23.402221 9.141492 46.585046 19.160568 70.060398 28.667721 19.672492 7.971381 39.491247 15.869631 59.456267 23.255956 9.214624 3.510333 17.551666-2.925278 19.745623-12.578693 2.779014-12.359298 6.947534-24.572332 10.238472-36.93163 2.99841-11.189187 5.558027-22.597769 8.556437-33.860088 3.290937-12.286166 7.093798-24.4992 10.384735-36.931629 2.925278-10.823527 5.558027-21.939582 8.629569-32.836241 4.680444-17.33227 9.580284-34.591407 14.260728-51.923677 2.99841-10.969791 5.631159-21.939582 8.483305-32.763109 3.437201-12.724957 7.16693-25.230519 10.531-37.882345 2.99841-11.335451 5.558027-22.670901 8.629568-33.93322 3.290937-12.286166 6.947534-24.4992 10.238472-36.858497 3.071541-11.262319 5.850555-22.524637 8.702701-33.860088 3.949125-15.650235 7.825118-31.446734 12.139902-46.950706 0.438792-1.974562 3.364069-3.071541 6.43561-5.704291zM292.85617 656.193788c3.802861 18.282985 8.263909 40.953886 13.456277 63.478524 6.069951 26.839422 19.891888 50.972962 36.785365 73.863259A247.551616 247.551616 0 0 0 441.679667 872.29867c18.429249 8.410173 37.882345 15.211443 58.871211 17.990457 15.503971 1.974562 31.007942 5.411764 46.511914 5.558027 16.162159 0.146264 32.543713-2.193958 48.486476-5.046104 14.918916-2.63275 29.910963-6.289347 43.879163-11.33545 38.759928-13.748805 72.76628-35.907782 98.947515-64.356107 19.672492-21.208262 35.103331-44.025428 46.365649-68.744023 6.508743-14.187596 9.726548-29.618436 13.310013-44.610483 3.144673-13.675673 6.874402-27.643873 6.728139-41.392678a388.330599 388.330599 0 0 0-6.289347-57.042913c-1.755167-11.116055-5.411764-21.939582-8.337041-32.909373-5.558027-20.988867-16.162159-40.222567-27.570741-59.236871a274.829829 274.829829 0 0 0-78.251176-82.931619 230.36561 230.36561 0 0 0-71.303641-34.29888c-23.329089-6.581875-47.023837-11.116055-71.449905-9.79968a238.410123 238.410123 0 0 0-108.96659 32.616845c-29.03338 17.186006-54.410163 37.809213-73.205071 63.478524a473.894969 473.894969 0 0 0-35.980914 55.287746c-8.629569 16.308423-14.406992 33.93322-20.184416 51.192358-2.925278 8.775833-3.437201 17.990457-4.753576 27.058817-1.828298 12.505562-3.364069 25.011123-5.631159 42.416525z"  horiz-adv-x="1024" />

    
    <glyph glyph-name="yonghu" unicode="&#59095;" d="M707.047619-128v24.380952h219.428571a73.22819 73.22819 0 0 1 73.142858 73.142858V146.285714h24.380952V-30.47619a97.645714 97.645714 0 0 0-97.52381-97.52381z m-390.095238 0H97.52381a97.633524 97.633524 0 0 0-97.52381 97.52381V146.285714h24.380952V-30.47619a73.22819 73.22819 0 0 1 73.142858-73.142858h219.428571v-24.380952z m-36.571429 294.375619a13.568 13.568 0 0 0-12.190476 13.494857 244.772571 244.772571 0 0 0 149.333334 225.255619 232.545524 232.545524 0 0 0 29.561904 10.349715 127.47581 127.47581 0 1 0 131.169524 0 252.988952 252.988952 0 0 0 29.561905-10.349715 244.284952 244.284952 0 0 0 149.333333-225.255619 13.482667 13.482667 0 0 0-8.740571-12.690286v-0.121904c-26.514286-2.706286-113.054476-3.657143-204.946286-3.657143-115.358476-0.048762-239.11619 1.499429-263.082667 2.974476zM1024 536.380952h-24.380952V798.47619a73.22819 73.22819 0 0 1-73.142858 73.142858H707.047619V896h219.428571a97.633524 97.633524 0 0 0 97.52381-97.52381v-262.095238z m-999.619048 0H0V798.47619a97.621333 97.621333 0 0 0 97.52381 97.52381h219.428571v-24.380952H97.52381a73.22819 73.22819 0 0 1-73.142858-73.142858v-262.095238z"  horiz-adv-x="1024" />

    
    <glyph glyph-name="yibeixuan" unicode="&#59096;" d="M446.193981 896L74.115344 438.60711v-566.571885L949.85453 896zM302.089683 413.139643l-91.725151-109.267057 55.760719-46.813643a13.45584 13.45584 0 0 1 21.45185 2.043033l76.420013 91.020657a20.130923 20.130923 0 0 1 5.53028 12.997919 93.556836 93.556836 0 0 1-29.712045 36.897886l10.778762 6.798369a114.251354 114.251354 0 0 0 32.230612-41.389037 27.545725 27.545725 0 0 0-7.502864-20.324659l-80.999226-96.498099a21.663198 21.663198 0 0 0-34.484993-2.729915l-93.098915 78.146024 8.101684 9.651571 26.31286-22.085894 83.623467 99.615486-49.120861 41.212914-100.214307-119.411775-9.140812 7.661375 108.368827 129.09857z m60.604117 52.625721a327.977297 327.977297 0 0 0 5.583117-37.866566l-11.941177 4.931459a216.17406 216.17406 0 0 1-28.637692 93.046078l-31.209095-37.162071-8.753341 7.344352 38.711959 46.144373 7.890336-6.639858a188.910132 188.910132 0 0 0 23.213085-49.983867l1.056741-0.880618q7.221066 1.109578 13.984211 1.708399a69.075661 69.075661 0 0 1-4.684886 25.749265l10.32084 0.915842a65.042431 65.042431 0 0 0 4.086067-26.154349 179.0296 179.0296 0 0 0 24.727748-0.440309l3.628145-11.694604a204.567517 204.567517 0 0 1-42.269655 1.690786l74.711615-62.699988-7.643762-9.140813z m-18.264013 156.098312l7.92556 9.440223 22.279631-18.704322 32.97033 39.293167 4.755336-3.980393a212.968611 212.968611 0 0 0 23.177861-32.582859l-9.827695-6.710308a165.802721 165.802721 0 0 1-17.189659 26.0839l-24.903872-29.67682 38.57106-32.389123 25.766877 30.698337 8.401094-7.044943a150.937892 150.937892 0 0 0 27.757074-64.866308 204.320944 204.320944 0 0 1 58.261674 18.739547l3.716207-12.311037a206.240691 206.240691 0 0 0-60.410382-17.823704 174.379938 174.379938 0 0 0-8.735728-65.606027l-12.539998 2.148708a161.188284 161.188284 0 0 1 8.876627 62.206842 136.49576 136.49576 0 0 0-69.287009 13.631963l-6.340448-7.555701 3.522471-2.941263a184.577493 184.577493 0 0 0 59.899624-84.979619l-13.174043-2.166319a163.812525 163.812525 0 0 1-53.946647 77.494367l-60.709791 50.952546 33.410639 39.803925z m31.226707-26.207186l-25.766877-30.698337 38.57106-32.389123 25.78449 30.698337z m96.339588-65.641251a137.957586 137.957586 0 0 1-22.508591 56.5885l-38.289262-45.616002a124.871605 124.871605 0 0 1 60.815466-10.972498z m-194.510861 11.518481a255.04453 255.04453 0 0 0 31.948814-10.743538l-4.050842-11.236683a279.966014 279.966014 0 0 1-33.111229 10.76115zM489.238579 794.869851l7.802274 9.299324 23.494883-19.725839 29.888168 35.594572 9.123201-7.643763-29.941006-35.665021 27.369602-22.966512 35.471285 42.269654 9.070364-7.608537-25.18567-29.993843 50.52985-42.392941q4.367864-3.698595 8.911852 1.708398l7.044943 8.418706a20.976316 20.976316 0 0 1 4.702499 8.330645q0.774944 6.252386-17.11921 23.036962l9.72202 5.882527a62.823274 62.823274 0 0 0 20.042862-26.68272 24.939096 24.939096 0 0 0-6.886431-16.044856l-11.042948-13.15643a15.498873 15.498873 0 0 0-10.514576-6.111488 14.230784 14.230784 0 0 0-10.602639 3.804269l-52.467209 44.03089-16.309042-19.408816a142.906658 142.906658 0 0 0 28.214995-32.653308 80.259507 80.259507 0 0 0 5.82969-59.300804l-12.539998 0.352247a74.429817 74.429817 0 0 1-3.046937 51.604204 124.554583 124.554583 0 0 1-25.978226 30.997747l-24.128928-28.708141-9.105588 7.643763L549.12059 744.498512l-27.299152 22.913676-25.925388-30.856848a177.197915 177.197915 0 0 0 9.986206-26.929293l-12.046852-3.680982a181.424881 181.424881 0 0 1-27.263927 57.275382l9.42261 7.32674q8.031234-11.817891 14.001823-22.508591L512.663013 775.038338z m-71.048245-92.834729a268.341859 268.341859 0 0 0 52.414372 7.32674l1.056742-12.2582a268.271409 268.271409 0 0 1-52.872294-6.72792zM658.845569 677.853356q-7.520476-8.947077-26.999742-31.455668a158.652104 158.652104 0 0 0-26.453759-24.74536 51.075833 51.075833 0 0 0-28.831427-7.978397q-7.502864 0.317022-10.144717-2.83559-6.041038-7.203454 5.371769-43.097435l-12.55761-1.796461a82.513889 82.513889 0 0 0-5.142808 47.659036l-56.13058 47.113053-21.786484-25.960613-9.105588 7.661375 29.289348 34.90769 65.588414-55.073838a24.14654 24.14654 0 0 0 9.633959 1.49705 58.384961 58.384961 0 0 1 23.935192 5.019522 107.435373 107.435373 0 0 1 24.005642 21.099603q15.357975 17.612356 29.201286 34.079909l20.307047 24.216989 15.058564 19.338368 7.749437-10.373678z"  horiz-adv-x="1024" />

    
    <glyph glyph-name="ninsuoxu" unicode="&#59097;" d="M446.191148 895.982571L74.112717 438.605664v-566.570806L949.842564 895.982571zM253.842564 339.102397l-10.59695 5.350762q7.982571 8.104575 11.189543 11.921569 4.810458 5.716776-2.492375 11.851852l-43.398693 36.427015 7.860567 9.324619 45.647059-38.309369q13.1939-11.067538 3.102396-23.093682z m-100.305011-11.050109a220.96732 220.96732 0 0 0 3.485839-33.115469l-12.252723 0.22658a196.078431 196.078431 0 0 1-21.298475 83.88671l9.969499 7.302832a234.910675 234.910675 0 0 0 15.058823-38.100218l65.777778-55.215686-7.843137-9.359477z m12.409586 97.254902q5.472767-11.67756 8.819173-20.392157l59.294117 70.623093 5.891068-4.949891a221.071895 221.071895 0 0 0 17.952069-30.779956l-9.586056-6.466231a135.215686 135.215686 0 0 1-13.612201 25.342048l-55.755991-66.405229a199.12854 199.12854 0 0 0 6.570806-43.67756l-11.747276 0.104575a164.897603 164.897603 0 0 1-17.498911 69.716776z m57.74292-144.313726a187.747277 187.747277 0 0 0 26.579521-57.812636l-11.729848-3.46841a161.95207 161.95207 0 0 1-24.470588 53.681918z m73.446623-12.252723a16.418301 16.418301 0 0 0-26.178649-2.283225l-39.215687 32.923748 8.01743 9.551198 37.298475-31.337691q7.093682-5.925926 13.490196 1.708061l33.638344 40.052288a14.640523 14.640523 0 0 1 4.53159 11.642701 61.298475 61.298475 0 0 1-19.172113 24.069717l10.3878 6.379085a66.230937 66.230937 0 0 0 22.25708-30.222222 26.143791 26.143791 0 0 0-7.459695-17.708061z m5.071895 118.814815a447.337691 447.337691 0 0 0 62.344227-7.058824l-0.993464-12.479303a396.183007 396.183007 0 0 1-62.901961 7.843137z m-86.710239-13.298475a187.102397 187.102397 0 0 0 13.455337-52.705883l-11.154684-2.840958a173.542484 173.542484 0 0 1-12.461873 51.067538z m34.753812 49.516339a238.954248 238.954248 0 0 0 53.437909-5.193899l-2.3878-11.660131a282.3878 282.3878 0 0 1-54.239651 5.873638z m8.453159-88.749455a236.217865 236.217865 0 0 0 41.95207-0.296296l-0.766884-11.782135a253.141612 253.141612 0 0 1-42.788671 1.010893z m135.424837 162.370371l-38.344227-45.647059a191.215686 191.215686 0 0 0 43.816994-65.185185l-12.130719-1.045752a187.189542 187.189542 0 0 1-51.46841 70.135076l-71.163398 59.729848a160.958606 160.958606 0 0 1 26.265795 61.978213l12.217865 0.087146a170.823529 170.823529 0 0 0-24.313726-59.782135l22.692811-19.050109 37.577342 44.793028z m-83.084967-6.623094l34.196078-28.688453 2.265795-2.213508 30.27451 36.043573-36.618736 30.745098z m68.200435 62.570806l27.24183-22.867102a206.762527 206.762527 0 0 0 57.09804-68.392157l-11.433552-4.810458a188.653595 188.653595 0 0 1-52.758169 64.749455l-77.211329 64.836602a219.189542 219.189542 0 0 1 39.215686 71.755991l12.270152-2.318083a228.845316 228.845316 0 0 0-36.357298-67.694989l32.766884-27.503268 53.891068 64.209151 9.202614-7.721133-17.342048-20.671024 94.588236-79.389979-7.721133-9.202614-94.588235 79.407407z m88.191722 235.46841l7.721132 9.202614 23.267974-19.520697 29.577342 35.24183 9.063181-7.616558-29.594771-35.24183 27.084967-22.727669 35.102397 41.830066 8.976035-7.529412-24.923748-29.681917 50.004358-41.95207q4.32244-3.660131 8.819172 1.690632l6.971677 8.331154a20.75817 20.75817 0 0 1 4.653595 8.244009q0.766885 6.187364-16.941176 22.797386l9.620915 5.82135a62.169935 62.169935 0 0 0 19.834422-26.405228 24.679739 24.679739 0 0 0-6.814814-15.877996l-10.928105-13.019608a15.337691 15.337691 0 0 0-10.405229-6.04793 14.082789 14.082789 0 0 0-10.492375 3.764706l-51.921568 43.572985-16.139434-19.206972a141.420479 141.420479 0 0 0 27.921569-32.313726 79.424837 79.424837 0 0 0 5.769063-58.684096l-12.409586 0.348584a73.655773 73.655773 0 0 1-3.015251 51.067538 123.259259 123.259259 0 0 1-25.708061 30.675382l-23.877995-28.409586-9.010893 7.56427 37.141612 44.270152-27.015251 22.675382-25.655773-30.535948a175.35512 175.35512 0 0 0 9.882353-26.649238l-11.921569-3.642701a179.538126 179.538126 0 0 1-26.980392 56.679738l9.324619 7.250545q7.947712-11.694989 13.856209-22.27451L490.670451 769.202614z m-70.291939-91.851852a265.551198 265.551198 0 0 0 51.938997 7.250544l1.045752-12.130719a265.481481 265.481481 0 0 1-52.32244-6.657952zM635.33276 673.010893q-7.442266-8.854031-26.718954-31.12854a157.002179 157.002179 0 0 0-26.178649-24.488017 50.544662 50.544662 0 0 0-28.531591-7.895425q-7.424837 0.313725-10.039215-2.806101-5.978214-7.12854 5.315904-42.649237l-12.427015-1.777778a81.655773 81.655773 0 0 0-5.089325 47.163399l-55.546841 46.623094-21.559913-25.690632-9.010893 7.581699 28.984749 34.544662 64.906319-54.501089a23.895425 23.895425 0 0 0 9.533769 1.481482 57.777778 57.777778 0 0 1 23.686274 4.96732 106.318083 106.318083 0 0 1 23.755991 20.880174q15.198257 17.429194 28.897604 33.72549l20.09586 23.965142 14.901961 19.137255 7.668846-10.265795z"  horiz-adv-x="1024" />

    
    <glyph glyph-name="guanbi" unicode="&#59098;" d="M512-113.777778c-132.949333 0-257.962667 51.768889-351.971556 145.806222A494.506667 494.506667 0 0 0 14.222222 384c0 132.949333 51.768889 257.962667 145.806222 351.971556A494.506667 494.506667 0 0 0 512 881.777778c132.949333 0 257.962667-51.768889 351.971556-145.806222A494.506667 494.506667 0 0 0 1009.777778 384c0-132.949333-51.768889-257.962667-145.806222-351.971556A494.506667 494.506667 0 0 0 512-113.777778zM512 867.555556C382.862222 867.555556 261.404444 817.265778 170.097778 725.902222A480.398222 480.398222 0 0 1 28.444444 384c0-129.137778 50.289778-250.595556 141.653334-341.902222C261.404444-49.294222 382.862222-99.555556 512-99.555556c129.137778 0 250.595556 50.289778 341.902222 141.653334C945.294222 133.404444 995.555556 254.862222 995.555556 384c0 129.137778-50.289778 250.595556-141.653334 341.902222A480.398222 480.398222 0 0 1 512 867.555556m0 28.444444c282.766222 0 512-229.233778 512-512s-229.233778-512-512-512S0 101.233778 0 384 229.233778 896 512 896zM259.470222 177.379556L466.090667 384l-206.620445 206.620444 45.909334 45.909334L512 429.909333l206.620444 206.620445 45.909334-45.909334-206.620445-206.648888 206.620445-206.592-45.937778-45.909334L512 338.090667l-206.592-206.620445z"  horiz-adv-x="1024" />

    
    <glyph glyph-name="shijian" unicode="&#59099;" d="M874.890746 746.378443A495.993567 495.993567 0 0 1 511.927598 895.937105a522.614277 522.614277 0 0 1-362.890015-149.485528A519.542657 519.542657 0 0 1 0.063992 384.000366a511.936739 511.936739 0 0 1 148.973591-362.378078A495.993567 495.993567 0 0 1 511.927598-127.936374a522.614277 522.614277 0 0 1 362.963148 149.485528A519.542657 519.542657 0 0 1 1023.791203 384.000366a511.936739 511.936739 0 0 1-148.900457 362.378077z m-71.671144-652.134272a418.179182 418.179182 0 0 0-291.292004-119.720063 393.606219 393.606219 0 0 0-291.218871 119.720063A409.549391 409.549391 0 0 0 102.45134 384.000366c0.292535 108.238053 42.710151 212.088078 118.257387 289.756194a418.179182 418.179182 0 0 0 291.218871 119.720063 393.606219 393.606219 0 0 0 291.292004-119.720063A409.549391 409.549391 0 0 0 921.403855 384.000366a417.155309 417.155309 0 0 0-118.184253-289.756195zM716.702293 435.19404h-153.581021V639.968735a51.193674 51.193674 0 0 1-102.387348 0V384.000366a51.193674 51.193674 0 0 1 51.193674-51.193674h204.774695a51.193674 51.193674 0 1 1 0 102.387348z"  horiz-adv-x="1024" />

    
    <glyph glyph-name="sousuo" unicode="&#59100;" d="M630.208 187.008a393.856 393.856 0 1 0 78.72 78.784L1024-49.216 945.28-128l-315.072 315.008z m-236.352 0a315.072 315.072 0 1 1 0 630.208 315.072 315.072 0 0 1 0-630.144z"  horiz-adv-x="1024" />

    
    <glyph glyph-name="changjianwenti" unicode="&#59101;" d="M457.159111 72.760889a54.840889 54.840889 0 1 1 109.681778 0 54.840889 54.840889 0 0 1-109.681778 0zM512-128c-282.339556 0-512 229.660444-512 512s229.660444 512 512 512 512-229.660444 512-512-229.660444-512-512-512zM512 822.556444C270.222222 822.556444 73.443556 625.777778 73.443556 384c0-241.777778 196.721778-438.556444 438.556444-438.556444 241.777778 0 438.556444 196.778667 438.556444 438.556444S753.720889 822.556444 512 822.556444z m0-623.331555a36.579556 36.579556 0 0 0-36.579556 36.522667v61.895111c0 59.790222 45.738667 105.528889 86.072889 145.863111 29.582222 29.582222 60.245333 60.188444 60.245334 84.593778A110.250667 110.250667 0 0 1 512 638.634667c-61.496889 0-109.738667-47.445333-109.738667-108.088889a36.579556 36.579556 0 0 0-73.102222 0c0 99.953778 82.033778 181.248 182.840889 181.248a183.466667 183.466667 0 0 0 182.840889-183.751111c0-54.670222-41.528889-96.142222-81.635556-136.305778-31.800889-31.744-64.625778-64.568889-64.625777-94.094222v-61.838223a36.636444 36.636444 0 0 0-36.579556-36.579555z"  horiz-adv-x="1024" />

    
    <glyph glyph-name="tixing" unicode="&#59102;" d="M511.999071 806.956754l133.564869-44.521623 133.564869-133.564869v-534.259476H511.999071zM274.565255 147.680561h474.867631V502.161723c0 130.492877-106.317636 236.320775-237.433815 236.320775-131.11618 0-237.433815-105.827898-237.433816-236.320775v-354.481162z m554.027077 0H868.172055v-78.758751H155.826087v78.803272h39.579723v354.392119c0 153.866729 110.725276 281.910917 257.245937 309.603367V896h118.694647v-84.279432c146.47614-27.692449 257.245938-155.781159 257.245938-309.558845v-354.481162z m-395.752707-118.160388c0-43.497626 35.439212-78.758751 79.159446-78.758751s79.159446 35.261125 79.159446 78.803273h79.159445A157.918197 157.918197 0 0 0 511.999071-127.997329a157.918197 157.918197 0 0 0-158.318891 157.517502h79.159445zM591.158517 521.84028v-295.356446h79.159445V521.84028H591.158517z"  horiz-adv-x="1024" />

    
    <glyph glyph-name="xiaoxi" unicode="&#59103;" d="M24.356571 408.264251h633.766843v-487.512955l-292.507774 195.005182-48.751295 48.751295H73.107867zM945.512301 115.756478a36.563472 36.563472 0 0 0-51.968881 0l-103.937762 105.059042a37.538498 37.538498 0 0 0 0 52.505145 36.563472 36.563472 0 0 0 51.968881 0l103.937762-105.059042a37.538498 37.538498 0 0 0 0-52.505145zM999.382482 419.477049a37.050985 37.050985 0 0 0-36.758476-37.099736h-146.985156a37.050985 37.050985 0 0 0-36.758477 37.099736c0 20.475544 16.57544 37.148487 36.758477 37.148487h146.985156a37.050985 37.050985 0 0 0 36.758476-37.148487z m-209.776824 125.095824a36.563472 36.563472 0 0 1 51.968881 0l103.937762 105.059042a37.538498 37.538498 0 0 1 0 52.505146 36.563472 36.563472 0 0 1-51.968881 0l-103.937762-105.059042a37.538498 37.538498 0 0 1 0-52.505146zM639.744175-128a58.501555 58.501555 0 0 0-37.684751 15.161653l-284.073799 242.927706a37.440995 37.440995 0 0 0-4.338866 52.358891 36.465969 36.465969 0 0 0 51.822627 4.387617l249.119121-213.043162V793.643242L390.966314 600.929371c-20.670549-17.842974-55.430223-30.810819-82.633446-30.810819H97.873525v-374.79996h100.768928c20.280539 0 36.709726-16.624192 36.709726-37.148487 0-20.475544-16.429187-37.148487-36.709726-37.148487H94.509686C55.849908 121.021618 24.356571 152.807462 24.356571 191.954753V573.482392c0 39.14729 31.493337 70.933135 70.201866 70.933135h213.774431c9.652757 0 27.593233 6.678927 34.954679 13.016596L602.059424 880.4693c17.745472 15.307907 39.14729 19.451767 57.185269 11.017793 18.037979-8.433974 28.812016-27.544482 28.812016-51.140109v-912.86801c0-23.595627-10.725285-42.706135-28.763264-51.140109a45.777467 45.777467 0 0 0-19.500519-4.338865z"  horiz-adv-x="1024" />

    
    <glyph glyph-name="yonghu1" unicode="&#59104;" d="M1016.431304-72.303304v68.296347c0 140.065391-248.297739 178.265043-248.297739 178.265044H266.907826S15.137391 136.058435 15.137391-4.006957v-68.296347s-0.578783-51.511652 80.450783-53.248c81.029565-1.736348 422.511304 0 422.511304 0s339.745391-1.736348 420.774957 0c81.029565 1.736348 77.55687 53.248 77.556869 53.248zM605.495652 184.097391h-86.238609l-252.349217-5.209043S15.137391 135.479652 15.137391-4.585739v-68.296348s-0.578783-51.511652 80.450783-53.248c81.029565-1.736348 81.608348 1.157565 81.608348 1.157565l246.561391 187.525565H605.495652v121.544348zM368.194783 328.793043h300.966956v-185.210434H368.194783zM798.809043 592.717913s38.199652-116.914087-65.981217-186.946783V615.290435l65.981217-22.572522z m-577.625043 0S200.347826 475.803826 287.165217 405.77113V615.290435l-65.981217-22.572522zM287.165217 614.13287v-213.570783s50.93287-184.05287 232.670609-184.05287 230.355478 187.525565 230.355478 187.525566V599.084522s11.575652 277.815652-230.355478 277.815652S287.165217 614.13287 287.165217 614.13287zM518.678261 216.509217c-179.422609 0-231.513043 184.05287-231.513044 184.05287V614.13287S275.589565 877.478957 518.678261 877.478957v-660.96974zM419.706435 726.416696s38.778435-154.534957 397.623652-154.534957c0 0-5.787826 309.069913-297.494261 309.069913-291.706435 0-300.966957-309.069913-300.966956-309.069913s122.12313 32.990609 200.837565 154.534957zM362.985739 274.966261l-95.49913-99.550609 156.271304-115.756522 98.971826 78.135653zM672.055652 274.966261l95.499131-99.550609-155.692522-115.756522-99.550609 78.135653z"  horiz-adv-x="1024" />

    
    <glyph glyph-name="zhinengkefu" unicode="&#59105;" d="M960.20965 541.798679h-42.015213C908.188107 738.514019 744.1639 896 540.114375 896 336.064849 896 172.040642 738.514019 162.034312 541.798679h-42.015213C54.011437 541.798679 0 488.583199 0 423.598912v-78.686136c0-64.984287 54.011437-118.086059 120.019099-118.086059h40.025318c44.005108 0 79.993782 35.420132 79.993782 78.686136V522.07029c0 163.341958 134.062073 295.186719 300.076176 295.18672 166.014102 0 300.076176-131.844762 300.076175-295.18672v-275.515185c0-120.075954-84.030426-220.423519-196.033091-247.997779-14.042974 19.728388-38.035423 31.497196-64.017767 31.497196H500.089057c-44.005108 0-79.993782-35.420132-79.993782-78.686136 0-43.322858 35.988674-78.74299 79.993782-78.74299h80.050635c32.008883 0 61.971018 19.671534 74.024097 47.18894a337.258786 337.258786 0 0 1 266.077397 307.012381h39.968464c66.007662 0 120.019099 53.158625 120.019099 118.142913V423.655766c0 64.984287-54.011437 118.086059-120.019099 118.086058zM119.962245 305.512853a39.797901 39.797901 0 0 0-40.025318 39.399923V423.655766a39.797901 39.797901 0 0 0 40.025318 39.399922h40.025318v-157.485981H119.962245z m880.215868 39.399923a39.797901 39.797901 0 0 0-40.025317-39.399923h-40.025318v157.485981h40.025318a39.797901 39.797901 0 0 0 40.025317-39.399922v-78.686136z"  horiz-adv-x="1080" />

    
    <glyph glyph-name="xuqiuguanli" unicode="&#59106;" d="M1163.645831 651.559051c-6.925017 0-14.127729-5.154712-16.418712-11.73261l-6.404339-15.481492c-3.002576-6.109288-1.562034-14.874034 3.367051-19.785763l23.951186-23.899118a7.983729 7.983729 0 0 0 2.360407-5.692746 7.983729 7.983729 0 0 0-2.360407-5.692746l-43.424542-43.337762a8.053153 8.053153 0 0 0-5.727458-2.360407 8.070508 8.070508 0 0 0-5.76217 2.360407l-23.951186 23.899118a18.189017 18.189017 0 0 1-12.652475 4.877017 16.488136 16.488136 0 0 1-7.220067-1.562034l-15.620339-6.421695c-6.421695-2.221559-11.541695-9.458983-11.541695-16.418712v-33.70522a8.10522 8.10522 0 0 0-8.070509-8.10522h-61.509423a8.10522 8.10522 0 0 0-8.053153 8.10522V530.310508c0 6.977085-5.154712 14.197153-11.715254 16.453424l-15.620339 6.456407a16.314576 16.314576 0 0 1-7.063865 1.49261c-4.859661 0-9.597831-1.822373-12.66983-4.877017l-23.933831-23.899118a8.053153 8.053153 0 0 0-5.727457-2.360407 8.070508 8.070508 0 0 0-5.744814 2.360407l-43.441898 43.337762a7.983729 7.983729 0 0 0-2.343051 5.692746 7.983729 7.983729 0 0 0 2.343051 5.692746l23.951186 23.899118c4.929085 4.929085 6.386983 13.676475 3.297627 19.941967l-6.386983 15.464135c-2.221559 6.439051-9.441627 11.593763-16.366644 11.593763h-33.930847a8.053153 8.053153 0 0 0-8.070509 8.10522v30.962983H120.415458c-13.797966 0-25.096678-11.35078-25.096678-25.235525v-678.44339h1093.701423V651.541695h-25.374372zM1124.716475 525.936814a8.053153 8.053153 0 0 0-5.727458-2.360407 8.070508 8.070508 0 0 0-5.744814 2.360407l-23.951186 23.899118a18.189017 18.189017 0 0 1-12.669831 4.877017 16.488136 16.488136 0 0 1-7.202711-1.562034l-15.620339-6.439051c-6.421695-2.204203-11.559051-9.441627-11.559051-16.401356v-33.70522a8.10522 8.10522 0 0 0-8.070509-8.10522h-61.492068a8.10522 8.10522 0 0 0-8.070508 8.10522V530.310508c0 6.959729-5.137356 14.197153-11.697898 16.453424l-15.620339 6.439051a16.314576 16.314576 0 0 1-7.063865 1.509966c-4.859661 0-9.597831-1.822373-12.66983-4.877017l-23.951187-23.899118a8.053153 8.053153 0 0 0-5.727457-2.360407 8.070508 8.070508 0 0 0-5.744814 2.360407l-43.441898 43.337762a7.983729 7.983729 0 0 0-2.343051 5.692746 7.983729 7.983729 0 0 0 2.343051 5.692746l23.951186 23.899118c4.929085 4.911729 6.386983 13.676475 3.297627 19.924611l-1.249627 3.072H170.574102a12.617763 12.617763 0 0 1-12.548339-12.600407v-559.919729c0-6.942373 5.658034-12.617763 12.548339-12.617763h943.190779a12.617763 12.617763 0 0 1 12.548339 12.617763V527.516203l-1.596745-1.579389zM170.574102 627.555797a12.617763 12.617763 0 0 1-12.548339-12.600407v-559.919729c0-6.942373 5.658034-12.617763 12.548339-12.617763h253.361898V627.555797H170.574102zM207.802576 55.035661v559.902373c0 6.942373 5.640678 12.617763 12.548339 12.617763H170.574102a12.617763 12.617763 0 0 1-12.548339-12.600407v-559.919729c0-6.942373 5.658034-12.617763 12.548339-12.617763h49.776813a12.617763 12.617763 0 0 0-12.548339 12.617763zM1284.338983-113.941695c0-6.942373-5.640678-12.617763-12.548339-12.617763H12.548339A12.617763 12.617763 0 0 0 0-113.959051v90.806237c0 6.942373 5.640678 12.600407 12.548339 12.600407h1259.242305c6.907661 0 12.548339-5.67539 12.548339-12.600407v-90.806237zM49.776814-113.941695v90.771526c0 6.942373 5.640678 12.617763 12.530983 12.617762H12.548339a12.617763 12.617763 0 0 1-12.548339-12.600407v-90.806237c0-6.942373 5.640678-12.600407 12.548339-12.600407H62.307797a12.617763 12.617763 0 0 0-12.530983 12.600407zM352.950237 480.689898h-143.012881a18.865898 18.865898 0 0 0-18.796475 18.917966c0 10.448271 8.417627 18.917966 18.813831 18.917967h142.995525c10.378847 0 18.813831-8.469695 18.813831-18.917967 0-10.448271-8.434983-18.917966-18.813831-18.917966zM352.950237 397.450847h-143.012881a18.865898 18.865898 0 0 0-18.796475 18.917967c0 10.448271 8.417627 18.917966 18.813831 18.917966h142.995525c10.378847 0 18.813831-8.469695 18.813831-18.917966 0-10.448271-8.434983-18.917966-18.813831-18.917967zM352.950237 314.229153h-143.012881a18.865898 18.865898 0 0 0-18.796475 18.90061c0 10.448271 8.417627 18.917966 18.813831 18.917966h142.995525c10.378847 0 18.813831-8.469695 18.813831-18.917966 0-10.448271-8.434983-18.917966-18.813831-18.917966zM352.950237 230.972746h-143.012881a18.865898 18.865898 0 0 0-18.796475 18.917966c0 10.448271 8.417627 18.917966 18.813831 18.917966h142.995525c10.378847 0 18.813831-8.469695 18.813831-18.917966 0-10.448271-8.434983-18.917966-18.813831-18.917966zM310.306712 147.733695h-100.352a18.865898 18.865898 0 0 0-18.813831 18.917966c0 10.448271 8.417627 18.917966 18.813831 18.917966h100.352c10.378847 0 18.813831-8.469695 18.81383-18.917966 0-10.448271-8.434983-18.917966-18.81383-18.917966zM484.143729-10.552407v-27.734779c0-13.884746 11.281356-25.218169 25.079322-25.21817h265.892881c13.797966 0 25.079322 11.35078 25.079322 25.21817v27.734779h-316.051525zM533.903186-38.287186v27.734779h-49.759457v-27.734779c0-13.884746 11.281356-25.218169 25.079322-25.21817h49.776813a25.235525 25.235525 0 0 0-25.096678 25.21817zM962.09139 496.605288c0-5.848949 4.755525-10.639186 10.587118-10.639186h61.492068c5.814237 0 10.587119 4.790237 10.587119 10.639186V530.310508c0 5.848949 4.495186 12.183864 9.997017 14.075661l15.759186 6.508475a15.91539 15.91539 0 0 0 17.008814-2.846373l23.951186-23.899118a10.656542 10.656542 0 0 1 15.012882 0l43.424542 43.337762a10.604475 10.604475 0 0 1 0 14.97817l-23.951186 23.899118a15.880678 15.880678 0 0 0-2.829017 17.008814l6.473762 15.620339c1.909153 5.553898 8.226712 10.066441 14.058305 10.066441h33.930848c5.814237 0 10.569763 4.772881 10.569763 10.62183V720.878644a10.639186 10.639186 0 0 1-10.587119 10.639187h-33.930847c-5.814237 0-12.149153 4.512542-14.058306 10.049084l-6.456406 15.620339a15.863322 15.863322 0 0 0 2.829017 17.008814l23.951186 23.899118a10.604475 10.604475 0 0 1 0 14.97817l-43.424542 43.337763a10.673898 10.673898 0 0 1-15.012882 0l-23.951186-23.899119a15.91539 15.91539 0 0 0-17.008814-2.829017l-15.759186 6.491119c-5.501831 1.909153-10.014373 8.226712-10.014373 14.075661V883.920271a10.639186 10.639186 0 0 1-10.587119 10.639187h-61.474712a10.639186 10.639186 0 0 1-10.587118-10.639187v-33.687864c0-5.848949-4.512542-12.183864-9.997017-14.075661l-15.759187-6.491119a15.91539 15.91539 0 0 0-17.008813 2.829017l-23.951187 23.899119a10.673898 10.673898 0 0 1-15.012881 0l-43.441898-43.337763a10.587119 10.587119 0 0 1 0-14.978169l23.951186-23.899119a15.863322 15.863322 0 0 0 2.829017-17.008814l-6.473763-15.620339c-1.909153-5.519186-8.226712-10.049085-14.058305-10.049084h-33.913491a10.639186 10.639186 0 0 1-10.587119-10.621831v-61.214373c0-5.848949 4.755525-10.621831 10.587119-10.62183h33.930847c5.814237 0 12.149153-4.512542 14.058305-10.049085l6.456407-15.620339a15.863322 15.863322 0 0 0-2.829017-17.008814l-23.951186-23.899118a10.587119 10.587119 0 0 1 0-14.97817l43.441898-43.337762a10.656542 10.656542 0 0 1 15.012881 0l23.951187 23.899118a15.932746 15.932746 0 0 0 17.008813 2.829017l15.759187-6.491119c5.501831-1.909153 9.997017-8.226712 9.997017-14.075661v-33.70522zM904.886237 690.26278a98.529627 98.321356 0 1 1 197.059255 0 98.529627 98.321356 0 1 1-197.059255 0ZM934.859932 690.26278a98.408136 98.408136 0 0 0 83.551458 97.19322 98.425492 98.425492 0 0 1-113.507797-97.19322 98.425492 98.425492 0 0 1 113.507797-97.193221 98.408136 98.408136 0 0 0-83.551458 97.193221zM1003.415864 575.991322c-63.071458 0-114.392949 51.269424-114.392949 114.271458 0 63.002034 51.321492 114.288814 114.392949 114.288813 63.088814 0 114.410305-51.269424 114.410305-114.288813 0-63.002034-51.321492-114.271458-114.410305-114.271458z m0 196.642712c-45.576678 0-82.666305-36.95078-82.666305-82.371254 0-45.420475 37.089627-82.371254 82.666305-82.371255 45.594034 0 82.683661 36.968136 82.683661 82.371255 0 45.420475-37.089627 82.38861-82.683661 82.38861zM961.761627 690.26278a41.654237 41.567458 0 1 1 83.308475 0 41.654237 41.567458 0 1 1-83.308475 0ZM991.735322 690.26278c0 17.685695 11.073085 32.750644 26.676068 38.755796a41.602169 41.602169 0 0 1-56.649763-38.73844 41.602169 41.602169 0 0 1 56.649763-38.755797 41.550102 41.550102 0 0 0-26.676068 38.738441zM1003.415864 632.74522a57.586983 57.586983 0 0 0-57.517559 57.51756 57.586983 57.586983 0 0 0 57.517559 57.517559 57.586983 57.586983 0 0 0 57.51756-57.517559 57.586983 57.586983 0 0 0-57.51756-57.51756z m0 83.134916c-14.231864 0-25.790915-11.489627-25.790915-25.617356s11.576407-25.6 25.790915-25.6c14.231864 0 25.790915 11.489627 25.790916 25.6 0 14.127729-11.559051 25.617356-25.790916 25.617356zM565.664542 373.916203v-285.001762h366.227526v284.984406M747.52 262.942373a58.940746 58.940746 0 0 0 58.958102-58.958102v-115.06983h-117.898848v115.06983a58.940746 58.940746 0 0 0 58.940746 58.958102zM528.036881 373.916203l220.750102 179.061153L969.502373 373.933559z"  horiz-adv-x="1284" />

    
    <glyph glyph-name="renyuandanweiku" unicode="&#59107;" d="M46.710154-8.664615h893.321846v-72.073847H46.788923v72.073847zM819.436308 896H167.384615C96.728615 896 39.384615 838.656 39.384615 768v-532.007385c0-70.577231 57.344-128 128-128h652.051693c70.656 0 128 57.422769 128 128V768C947.436308 838.656 890.092308 896 819.436308 896z m-6.065231-446.621538h-60.022154v-193.378462H236.386462l1.024 193.378462H173.292308v70.656l325.316923 275.928615 314.683077-287.980308v-58.604307zM493.410462 669.696L297.432615 499.712v-184.083692h130.756923V441.028923h130.520616v-125.400615h130.678154V499.790769L493.410462 669.696z"  horiz-adv-x="1024" />

    
    <glyph glyph-name="baozhangduixiang" unicode="&#59108;" d="M42.6688 449.859629c0 58.058779 37.34177 132.998085 83.550079 167.270668C126.218879 617.215552 459.566644 869.741404 511.572305 869.741404c52.090917 0 385.864957-252.952127 385.864957-252.952128 45.867288-34.102073 83.038548-108.700358 83.038548-166.844392v-471.887437c0-27.878445-10.827408-54.563317-30.350845-74.257264-19.523437-19.693947-46.037799-30.777121-73.575223-30.862376H146.594868c-27.622679 0-54.137041 11.083174-73.575223 30.862376a105.11964 105.11964 0 0 0-30.350845 74.172009V449.944884z m716.996087-325.930564a249.54192 249.54192 0 0 1-181.593539 240.760636c37.682791 22.763134 62.83307 64.282408 62.833069 111.68429 0 71.699609-57.973524 130.184664-129.332112 130.184664-71.273333 0-129.332112-58.485055-129.332112-130.26992 0-47.316626 25.150279-88.8359 62.747814-111.599034a246.899009 246.899009 0 0 1-108.870868-64.111897 248.859878 248.859878 0 0 1-72.637416-176.648739c0-7.161435 5.456332-13.044043 12.447257-13.726084 43.650654-2.728166 414.169678-5.541587 474.871368 0.682041v0.085255a13.81134 13.81134 0 0 1 8.866539 12.958788z"  horiz-adv-x="1024" />

    
    <glyph glyph-name="lunhouce" unicode="&#59109;" d="M157.538462 896h708.923076a78.769231 78.769231 0 0 0 78.769231-78.769231v-866.461538a78.769231 78.769231 0 0 0-78.769231-78.769231H157.538462a78.769231 78.769231 0 0 0-78.769231 78.769231V817.230769a78.769231 78.769231 0 0 0 78.769231 78.769231z m459.224615-283.254154c7.876923 46.158769 6.065231 76.012308-19.692308 102.715077-37.888 30.404923-123.667692 31.586462-161.004307-1.969231-19.140923-23.867077-20.716308-44.740923-16.541539-101.29723a48.206769 48.206769 0 0 1-2.835692-1.890462l-3.702154-2.756923v-4.883692c-0.315077-14.414769 1.339077-26.545231 4.883692-35.761231 3.150769-8.507077 8.034462-14.729846 14.414769-18.432 3.780923-15.123692 8.270769-29.380923 14.493539-41.747692 7.246769-14.336 16.856615-25.915077 30.483692-32.768 6.301538-3.229538 22.291692-4.962462 38.203077-5.19877 16.541538-0.315077 33.634462 0.945231 40.329846 3.623385a67.347692 67.347692 0 0 1 33.713231 32.137846 194.56 194.56 0 0 1 16.068923 44.347077 34.973538 34.973538 0 0 1 13.863385 18.510769c3.387077 9.137231 4.962462 21.110154 4.726154 35.209846v4.883693l-3.702154 2.756923a45.292308 45.292308 0 0 1-3.780923 2.520615z m-78.532923-163.446154c-13.390769 0.787692-17.329231 0.787692-30.72 0l-0.472616-12.918154 7.089231-12.603076-9.767384-69.71077-51.593847 93.184-55.059692 0.551385c-40.014769-38.281846-47.340308-113.427692-48.206769-157.380923h339.652923c4.962462 50.097231-15.202462 126.818462-46.710154 159.507692l-60.888615-2.363077-40.014769-94.129231-9.767385 70.262154 7.010461 12.603077-0.551384 12.996923z m45.528615 183.532308a118.153846 118.153846 0 0 0 8.034462-26.702769l1.417846-8.113231 7.561846 0.472615a10.870154 10.870154 0 0 0 4.411077-0.708923 10.633846 10.633846 0 0 0 1.890462-0.787692 71.68 71.68 0 0 0-3.465847-22.764308c-1.890462-5.12-4.568615-8.585846-7.955692-9.924923l-4.332308-1.575384-1.181538-4.726154c-4.096-16.777846-8.743385-31.980308-15.281231-43.953231a50.254769 50.254769 0 0 0-24.891077-24.103385c-4.804923-1.890462-19.456-2.756923-34.185846-2.520615-13.863385 0.236308-27.096615 1.417846-31.192615 3.465846a52.932923 52.932923 0 0 0-22.685539 24.812308 201.412923 201.412923 0 0 0-14.099692 42.062769l-1.260308 4.962462-4.568615 1.575384c-3.544615 1.260308-6.301538 4.568615-8.270769 9.688616a71.68 71.68 0 0 0-3.544616 23.079384 13.312 13.312 0 0 0 2.126769 0.945231c1.575385 0.551385 3.072 0.787692 4.489847 0.630154l7.798153-0.866462 1.417847 8.507077c1.811692 10.24 4.804923 19.849846 8.900923 28.672 13.075692-1.417846 29.144615 12.445538 40.172307 5.671385 28.435692-17.565538 64.512-12.996923 88.694154-7.876923zM257.654154 187.076923a21.267692 21.267692 0 1 1 0-42.614154h508.691692a21.267692 21.267692 0 1 1 0 42.614154H257.654154z m0-124.612923a21.267692 21.267692 0 1 1 0-42.692923h508.691692a21.267692 21.267692 0 1 1 0 42.692923H257.654154z"  horiz-adv-x="1024" />

    
    <glyph glyph-name="mima" unicode="&#59110;" d="M855.1424 440.6272L290.5088 441.5488c-0.256 75.264-20.736 192 44.288 262.8096C374.272 747.52 440.9344 791.9104 512 791.9104c104.96 0 183.5008-78.2336 221.5424-175.1552 11.0592-27.9552 20.7872-43.008 44.288-43.8272 58.88-1.7408 55.296 59.6992 44.3392 87.6544C767.2832 800.4608 664.2688 879.5648 512 879.5648c-103.4752 0-160.4608-20.992-221.5424-87.6032C197.0176 690.176 201.6256 525.568 201.8816 441.5488l-32.9728-0.9216c-30.8224 0-55.6544-24.3712-55.6544-54.272v-459.8272c0-30.1056 24.9344-54.4256 55.6544-54.4256h686.1824c30.72 0 55.6544 24.32 55.6544 54.4256v459.776c0.1024 30.0032-24.832 54.272-55.6032 54.272z m-31.5904-436.736c0-12.1344-4.3008-22.528-13.0048-31.0272a42.9056 42.9056 0 0 0-31.3856-12.8512H246.4256a42.496 42.496 0 0 0-31.3344 12.8512 42.0864 42.0864 0 0 0-13.056 31.0272v307.2c0 24.1152 19.8656 43.776 44.3904 43.776h532.736c24.4736 0 44.3904-19.6608 44.3904-43.776v-307.2z"  horiz-adv-x="1024" />

    
    <glyph glyph-name="yonghu2" unicode="&#59111;" d="M707.7888 591.5648c0 114.2272-93.3376 206.848-208.4864 206.848-115.2 0-208.5376-92.6208-208.5376-206.848 0-114.176 93.3888-206.7968 208.5376-206.7968 115.2 0 208.4864 92.5696 208.4864 206.848m292.0448-656.0256a47.36 47.36 0 0 0 2.304-14.0288 48.896 48.896 0 0 0-48.9984-48.6912 48.8448 48.8448 0 0 0-48.9984 48.6912v0.2048h-1.28c-12.7488 203.8784-182.7328 365.4656-391.168 365.4656s-378.4192-161.5872-391.2192-365.4656H119.296v-0.2048a48.896 48.896 0 0 0-48.9984-48.6912 48.8448 48.8448 0 0 0-48.9984 48.6912 48.64 48.64 0 0 0 2.048 13.2608c14.2336 185.0368 131.84 341.248 296.1408 410.88a303.2576 303.2576 0 0 0-126.2592 245.8624C193.28 759.6544 330.496 896 499.6096 896c169.216 0 306.3808-136.3456 306.3808-304.4352a302.9504 302.9504 0 0 0-118.2208-239.9232c172.2368-65.9968 297.1136-225.536 312.064-416.0512"  horiz-adv-x="1024" />

    
    <glyph glyph-name="xiazai" unicode="&#59115;" d="M161.792 403.136h222.592V841.408h222.528v-438.272h222.528l-333.824-292.224L161.792 403.2z m0-511.36H829.44v73.088H161.792v-73.088z"  horiz-adv-x="1024" />

    
    <glyph glyph-name="chakan" unicode="&#59116;" d="M1274.709333 233.642667C1130.154667 38.4 918.784-85.162667 682.666667-85.162667c-236.032 0-447.488 123.477333-592.042667 318.805334-63.744 86.186667-63.744 214.442667 0 300.629333C235.178667 729.685333 446.634667 853.162667 682.666667 853.162667c236.117333 0 447.488-123.562667 592.042666-318.890667 63.744-86.186667 63.744-214.357333 0-300.629333z m-64.256 229.802666c-133.973333 193.450667-326.912 304.384-529.237333 304.384s-395.264-110.933333-529.237333-304.384a143.957333 143.957333 0 0 1 0-158.976C285.866667 110.933333 478.805333 0 681.130667 0s395.264 110.933333 529.237333 304.384a143.957333 143.957333 0 0 1 0 159.061333z m-527.36-377.856a298.666667 298.666667 0 1 0 0 597.333334 298.666667 298.666667 0 0 0 0-597.333334z m0 512a213.333333 213.333333 0 1 1 0-426.666666 213.333333 213.333333 0 0 1 0 426.666666z"  horiz-adv-x="1365" />

    
    <glyph glyph-name="shanchu1" unicode="&#59117;" d="M458.796853 154.372927a40.356199 40.356199 0 0 0-80.591931 0V464.031462a40.356199 40.356199 0 0 0 80.591931 0v-309.658535z m186.722712 0a40.356199 40.356199 0 0 0-80.591932 0V464.031462a40.356199 40.356199 0 0 0 80.591932 0v-309.658535zM929.277854 746.524855h-205.394983V850.24631a36.681978 36.681978 0 0 1 0 4.03562 40.115266 40.115266 0 0 1-41.801794 41.681328H341.583177a40.115266 40.115266 0 0 1-41.801794-41.621095 38.007107 38.007107 0 0 1 0-4.03562v-103.781688h-205.394983A60.95593 60.95593 0 0 1 30.117647 689.363612c2.047927-33.489622 30.718898-59.02847 64.268753-57.161243h28.430038l55.414483-658.227675a92.036227 92.036227 0 0 1 91.975993-92.09646H758.938554a92.036227 92.036227 0 0 1 91.975994 92.09646l50.354899 658.227675h28.430039A60.95593 60.95593 0 0 1 993.847772 689.363612a61.437795 61.437795 0 0 1-64.569918 57.161243zM375.855829 819.828578h271.892362v-73.303723H375.855829V819.828578z m384.166921-850.732768H273.820902L214.491267 632.081903h594.802186l-49.270703-662.986093z"  horiz-adv-x="1024" />

    
    <glyph glyph-name="shangchuan" unicode="&#59118;" d="M187.2 549.184h222.528v-438.272h222.528V549.184h222.528L521.024 841.408 187.2 549.12z m0-657.408h667.584v73.088H187.2v-73.088z"  horiz-adv-x="1024" />

    


  </font>
</defs>
</svg>
