<?xml version="1.0" encoding="UTF-8"?>
<svg width="55px" height="55px" viewBox="0 0 55 55" version="1.1" xmlns="http://www.w3.org/2000/svg" xmlns:xlink="http://www.w3.org/1999/xlink">
    <!-- Generator: Sketch 54.1 (76490) - https://sketchapp.com -->
    <title>internet</title>
    <desc>Created with Sketch.</desc>
    <g id="内部系统页面01-15" stroke="none" stroke-width="1" fill="none" fill-rule="evenodd">
        <g id="internet">
            <polygon id="路径" fill="#656665" points="21.0833333 44 33.9166667 44 33.9166667 49.5 21.0833333 49.5"></polygon>
            <path d="M19.25,49.5 L35.75,49.5 C38.7878011,49.5 41.25,51.9621989 41.25,55 L13.75,55 C13.75,51.9621989 16.2121989,49.5 19.25,49.5 Z" id="路径" fill="#999999"></path>
            <path d="M53.1666667,44 L1.83333333,44 C0.820434542,44 0,43.1795655 0,42.1666667 L0,14.6666667 C0,13.6537679 0.820434542,12.8333333 1.83333333,12.8333333 L53.1666667,12.8333333 C54.1795655,12.8333333 55,13.6537679 55,14.6666667 L55,42.1666667 C55,43.1795655 54.1795655,44 53.1666667,44 Z" id="路径" fill="#999999"></path>
            <polygon id="路径" fill="#D9D7D8" points="3.66666667 0 51.3333333 0 51.3333333 40.3333333 3.66666667 40.3333333"></polygon>
            <polygon id="路径" fill="#EFEDEE" points="3.66666667 0 47.6666667 0 47.6666667 40.3333333 3.66666667 40.3333333"></polygon>
            <polygon id="路径" fill="#599072" points="3.66666667 0 51.3333333 0 51.3333333 7.33333333 3.66666667 7.33333333"></polygon>
            <polygon id="路径" fill="#6AC795" points="3.66666667 0 47.6666667 0 47.6666667 7.33333333 3.66666667 7.33333333"></polygon>
            <path d="M47.6666667,19.25 C47.6666667,23.8064779 43.9731445,27.5 39.4166667,27.5 C34.8601888,27.5 31.1666667,23.8064779 31.1666667,19.25 C31.1666667,14.6935221 34.8601888,11 39.4166667,11 C43.9731445,11 47.6666667,14.6935221 47.6666667,19.25 Z" id="路径" fill="#5789D6"></path>
            <polygon id="路径" fill="#D9D7D8" points="6.41666667 2.75 8.25 2.75 8.25 4.58333333 6.41666667 4.58333333"></polygon>
            <polygon id="路径" fill="#D9D7D8" points="10.0833333 2.75 11.9166667 2.75 11.9166667 4.58333333 10.0833333 4.58333333"></polygon>
            <polygon id="路径" fill="#D9D7D8" points="13.75 2.75 15.5833333 2.75 15.5833333 4.58333333 13.75 4.58333333"></polygon>
            <path d="M39.4166667,28.4166667 C36.8976237,28.4166667 35.75,23.6645915 35.75,19.25 C35.75,14.8354085 36.8976237,10.0833333 39.4166667,10.0833333 C41.9357096,10.0833333 43.0833333,14.8354085 43.0833333,19.25 C43.0833333,23.6645915 41.9357096,28.4166667 39.4166667,28.4166667 Z M39.4166667,11.9166667 C38.9453532,11.9166667 37.5833333,14.4375 37.5833333,19.25 C37.5833333,24.0625 38.9453532,26.5833333 39.4166667,26.5833333 C39.8879801,26.5833333 41.25,24.0625 41.25,19.25 C41.25,14.4375 39.8879801,11.9166667 39.4166667,11.9166667 Z" id="形状" fill="#699CE6" fill-rule="nonzero"></path>
            <polygon id="路径" fill="#699CE6" points="31.1666667 18.3333333 47.6666667 18.3333333 47.6666667 20.1666667 31.1666667 20.1666667"></polygon>
            <g id="分组" transform="translate(19.250000, 11.000000)" fill="#599072">
                <path d="M10.0833333,22 C9.74674479,22 9.41328942,21.9843343 9.0843099,21.9552409 L9.24902344,20.129069 C9.80000817,20.1796468 10.3684489,20.1796468 10.9176432,20.129069 L11.0832519,21.9552409 C10.7533773,21.9843343 10.4199219,22 10.0833333,22 Z" id="路径"></path>
                <path d="M13.0826416,21.5855305 L12.5831299,19.8211263 C13.1578369,19.6586507 13.7177734,19.4388835 14.2486165,19.1676432 L15.0838216,20.7991129 C14.4464518,21.125407 13.7728272,21.3903809 13.0826416,21.5855305 L13.0826416,21.5855305 Z" id="路径"></path>
                <path d="M17.0841064,19.485433 L15.9167887,18.0719401 C16.6767985,17.4439697 17.3284912,16.7027588 17.8521728,15.8693441 L19.4039714,16.84375 C18.7760009,17.8436686 17.9949544,18.7330322 17.0841064,19.485433 L17.0841064,19.485433 Z" id="路径"></path>
                <path d="M14.2495117,2.83235677 C13.4613037,2.4299723 12.6207275,2.14485677 11.7506103,1.98461908 L12.082723,0.181722062 C13.1274007,0.374186198 14.1367188,0.715698271 15.0838216,1.19999183 L14.2495117,2.83235677 Z" id="路径"></path>
                <path d="M8.41605634,1.98461908 L8.0848389,0.181722062 C8.73876953,0.0604248333 9.41149905,0 10.0833333,0 L10.0833333,1.83333333 C9.52250166,1.83333333 8.96032718,1.8839111 8.41605634,1.98461908 Z" id="路径"></path>
                <path d="M5.08374029,3.31575521 L4.08292638,1.77917483 C4.71179202,1.36962891 5.38452154,1.02319342 6.08321129,0.749715198 L6.75012204,2.45772301 C6.16825355,2.68509931 5.608317,2.97379557 5.08374029,3.31575521 Z" id="路径"></path>
                <path d="M1.73620608,7.20576989 L0.0680338542,6.44710286 C0.569335938,5.34423828 1.24743655,4.33671058 2.08353681,3.45048011 L3.41735843,4.70821129 C2.71866856,5.44763186 2.15425616,6.28820798 1.73620608,7.20576989 Z" id="路径"></path>
            </g>
            <polyline id="路径" fill="#DBAF89" points="9.16666667 22.9166667 9.16666667 35.75 25.6666667 35.75 25.6666667 22.9166667"></polyline>
            <polyline id="路径" fill="#BC8F6F" points="14.6666667 35.75 14.6666667 28.4166667 20.1666667 28.4166667 20.1666667 35.75"></polyline>
            <polygon id="路径" fill="#BC8F6F" points="7.33333333 22.9166667 17.4166667 14.6666667 27.5 22.9166667"></polygon>
            <path d="M39.4166667,28.4166667 C34.3620199,28.4166667 30.25,24.3046468 30.25,19.25 C30.25,14.1953532 34.3620199,10.0833333 39.4166667,10.0833333 C44.4713134,10.0833333 48.5833333,14.1953532 48.5833333,19.25 C48.5833333,24.3046468 44.4713134,28.4166667 39.4166667,28.4166667 Z M39.4166667,11.9166667 C35.3731283,11.9166667 32.0833333,15.2064616 32.0833333,19.25 C32.0833333,23.2935384 35.3731283,26.5833333 39.4166667,26.5833333 C43.460205,26.5833333 46.75,23.2935384 46.75,19.25 C46.75,15.2064616 43.460205,11.9166667 39.4166667,11.9166667 Z" id="形状" fill="#699CE6" fill-rule="nonzero"></path>
        </g>
    </g>
</svg>